<?xml version="1.0"?>
<svg xmlns="http://www.w3.org/2000/svg" xmlns:xlink="http://www.w3.org/1999/xlink" version="1.1" id="Layer_1" x="0px" y="0px" viewBox="0 0 509.287 509.287" style="enable-background:new 0 0 509.287 509.287;" xml:space="preserve" width="512px" height="512px" class=""><g><circle style="fill:#900DA8" cx="254.644" cy="254.644" r="254.644" data-original="#FBD303" class="" data-old_color="#FBD303"/><path style="fill:#FFFFFF" d="M444.185,107.825H65.102c-9.494,0-16.954,7.46-16.954,16.954v241.759  c0,9.494,7.46,16.954,16.954,16.954h378.744c9.494,0,16.954-7.46,16.954-16.954V124.779  C461.139,115.285,453.34,107.825,444.185,107.825z" data-original="#6EB1E1" class="" data-old_color="#ffffff"/><rect x="87.82" y="173.266" style="fill:#FFFFFF" width="333.987" height="173.944" data-original="#FCFCFD" class="" data-old_color="#ffffff"/><g>
	<circle style="fill:#900DA8" cx="181.065" cy="225.823" r="27.126" data-original="#646B79" class="" data-old_color="#646B79"/>
	<path style="fill:#900DA8" d="M241.42,322.119c-1.017-32.551-27.804-58.66-60.694-58.66s-59.677,26.109-60.694,58.66   L241.42,322.119L241.42,322.119z" data-original="#646B79" class="" data-old_color="#646B79"/>
</g><g>
	<rect x="278.04" y="234.977" style="fill:#900DA8" width="110.877" height="17.971" data-original="#DEDEDF" class="" data-old_color="#DEDEDF"/>
	<rect x="278.04" y="286.177" style="fill:#900DA8" width="110.877" height="17.971" data-original="#DEDEDF" class="" data-old_color="#DEDEDF"/>
</g><rect x="213.616" y="129.526" style="fill:#900DA8" width="82.395" height="20.683" data-original="#393D47" class="" data-old_color="#393D47"/><rect x="228.535" y="57.981" style="fill:#FFFFFF" width="52.217" height="81.717" data-original="#F0582F" class="active-path" data-old_color="#ffffff"/></g> </svg>
